<?xml version="1.0" encoding="utf-8" standalone="no"?>
<!DOCTYPE svg PUBLIC "-//W3C//DTD SVG 1.1//EN"
  "http://www.w3.org/Graphics/SVG/1.1/DTD/svg11.dtd">
<!-- Created with matplotlib (https://matplotlib.org/) -->
<svg height="345.6pt" version="1.1" viewBox="0 0 460.8 345.6" width="460.8pt" xmlns="http://www.w3.org/2000/svg" xmlns:xlink="http://www.w3.org/1999/xlink">
 <defs>
  <style type="text/css">
*{stroke-linecap:butt;stroke-linejoin:round;}
  </style>
 </defs>
 <g id="figure_1">
  <g id="patch_1">
   <path d="M 0 345.6 
L 460.8 345.6 
L 460.8 0 
L 0 0 
z
" style="fill:#ffffff;"/>
  </g>
  <g id="axes_1">
   <g id="patch_2">
    <path d="M 57.6 307.584 
L 414.72 307.584 
L 414.72 41.472 
L 57.6 41.472 
z
" style="fill:#ffffff;"/>
   </g>
   <g id="PathCollection_1">
    <path clip-path="url(#p0dfe3cf001)" d="M 83.649201 153.828001 
C 87.418408 153.828001 91.033746 152.330479 93.698978 149.665247 
C 96.364209 147.000016 97.861731 143.384678 97.861731 139.615471 
C 97.861731 135.846264 96.364209 132.230927 93.698978 129.565695 
C 91.033746 126.900463 87.418408 125.402942 83.649201 125.402942 
C 79.879995 125.402942 76.264657 126.900463 73.599425 129.565695 
C 70.934194 132.230927 69.436672 135.846264 69.436672 139.615471 
C 69.436672 143.384678 70.934194 147.000016 73.599425 149.665247 
C 76.264657 152.330479 79.879995 153.828001 83.649201 153.828001 
z
" style="fill:#482878;fill-opacity:0.5;stroke:#482878;stroke-opacity:0.5;"/>
    <path clip-path="url(#p0dfe3cf001)" d="M 90.727363 176.92105 
C 94.463339 176.92105 98.046803 175.436731 100.688537 172.794997 
C 103.330272 170.153262 104.814591 166.569799 104.814591 162.833822 
C 104.814591 159.097846 103.330272 155.514382 100.688537 152.872648 
C 98.046803 150.230913 94.463339 148.746594 90.727363 148.746594 
C 86.991386 148.746594 83.407923 150.230913 80.766188 152.872648 
C 78.124454 155.514382 76.640135 159.097846 76.640135 162.833822 
C 76.640135 166.569799 78.124454 170.153262 80.766188 172.794997 
C 83.407923 175.436731 86.991386 176.92105 90.727363 176.92105 
z
" style="fill:#482878;fill-opacity:0.5;stroke:#482878;stroke-opacity:0.5;"/>
    <path clip-path="url(#p0dfe3cf001)" d="M 97.805524 224.509974 
C 99.794547 224.509974 101.702373 223.719727 103.108825 222.313275 
C 104.515277 220.906823 105.305524 218.998997 105.305524 217.009974 
C 105.305524 215.020951 104.515277 213.113125 103.108825 211.706673 
C 101.702373 210.300221 99.794547 209.509974 97.805524 209.509974 
C 95.816501 209.509974 93.908675 210.300221 92.502223 211.706673 
C 91.095771 213.113125 90.305524 215.020951 90.305524 217.009974 
C 90.305524 218.998997 91.095771 220.906823 92.502223 222.313275 
C 93.908675 223.719727 95.816501 224.509974 97.805524 224.509974 
z
" style="fill:#3e4989;fill-opacity:0.5;stroke:#3e4989;stroke-opacity:0.5;"/>
    <path clip-path="url(#p0dfe3cf001)" d="M 104.883686 228.61915 
C 104.883686 228.61915 104.883686 228.61915 104.883686 228.61915 
C 104.883686 228.61915 104.883686 228.61915 104.883686 228.61915 
C 104.883686 228.61915 104.883686 228.61915 104.883686 228.61915 
C 104.883686 228.61915 104.883686 228.61915 104.883686 228.61915 
C 104.883686 228.61915 104.883686 228.61915 104.883686 228.61915 
C 104.883686 228.61915 104.883686 228.61915 104.883686 228.61915 
C 104.883686 228.61915 104.883686 228.61915 104.883686 228.61915 
C 104.883686 228.61915 104.883686 228.61915 104.883686 228.61915 
z
" style="fill:#440154;fill-opacity:0.5;stroke:#440154;stroke-opacity:0.5;"/>
    <path clip-path="url(#p0dfe3cf001)" d="M 111.961847 199.604357 
C 114.529665 199.604357 116.992657 198.584152 118.808379 196.76843 
C 120.6241 194.952709 121.644305 192.489716 121.644305 189.921898 
C 121.644305 187.35408 120.6241 184.891088 118.808379 183.075366 
C 116.992657 181.259645 114.529665 180.23944 111.961847 180.23944 
C 109.394029 180.23944 106.931036 181.259645 105.115315 183.075366 
C 103.299593 184.891088 102.279389 187.35408 102.279389 189.921898 
C 102.279389 192.489716 103.299593 194.952709 105.115315 196.76843 
C 106.931036 198.584152 109.394029 199.604357 111.961847 199.604357 
z
" style="fill:#31688e;fill-opacity:0.5;stroke:#31688e;stroke-opacity:0.5;"/>
    <path clip-path="url(#p0dfe3cf001)" d="M 119.040008 200.5285 
C 121.852912 200.5285 124.550985 199.410921 126.540008 197.421898 
C 128.529031 195.432875 129.64661 192.734802 129.64661 189.921898 
C 129.64661 187.108994 128.529031 184.410921 126.540008 182.421898 
C 124.550985 180.432875 121.852912 179.315296 119.040008 179.315296 
C 116.227105 179.315296 113.529031 180.432875 111.540008 182.421898 
C 109.550985 184.410921 108.433407 187.108994 108.433407 189.921898 
C 108.433407 192.734802 109.550985 195.432875 111.540008 197.421898 
C 113.529031 199.410921 116.227105 200.5285 119.040008 200.5285 
z
" style="fill:#31688e;fill-opacity:0.5;stroke:#31688e;stroke-opacity:0.5;"/>
    <path clip-path="url(#p0dfe3cf001)" d="M 126.11817 169.026403 
C 128.786724 169.026403 131.346341 167.966175 133.233294 166.079222 
C 135.120247 164.192269 136.180475 161.632652 136.180475 158.964097 
C 136.180475 156.295542 135.120247 153.735925 133.233294 151.848972 
C 131.346341 149.962019 128.786724 148.901791 126.11817 148.901791 
C 123.449615 148.901791 120.889998 149.962019 119.003045 151.848972 
C 117.116092 153.735925 116.055864 156.295542 116.055864 158.964097 
C 116.055864 161.632652 117.116092 164.192269 119.003045 166.079222 
C 120.889998 167.966175 123.449615 169.026403 126.11817 169.026403 
z
" style="fill:#31688e;fill-opacity:0.5;stroke:#31688e;stroke-opacity:0.5;"/>
    <path clip-path="url(#p0dfe3cf001)" d="M 133.196331 193.791623 
C 133.196331 193.791623 133.196331 193.791623 133.196331 193.791623 
C 133.196331 193.791623 133.196331 193.791623 133.196331 193.791623 
C 133.196331 193.791623 133.196331 193.791623 133.196331 193.791623 
C 133.196331 193.791623 133.196331 193.791623 133.196331 193.791623 
C 133.196331 193.791623 133.196331 193.791623 133.196331 193.791623 
C 133.196331 193.791623 133.196331 193.791623 133.196331 193.791623 
C 133.196331 193.791623 133.196331 193.791623 133.196331 193.791623 
C 133.196331 193.791623 133.196331 193.791623 133.196331 193.791623 
z
" style="fill:#440154;fill-opacity:0.5;stroke:#440154;stroke-opacity:0.5;"/>
    <path clip-path="url(#p0dfe3cf001)" d="M 140.274492 223.025256 
C 144.948553 223.025256 149.431806 221.168232 152.736866 217.863172 
C 156.041926 214.558112 157.89895 210.074859 157.89895 205.400799 
C 157.89895 200.726738 156.041926 196.243485 152.736866 192.938425 
C 149.431806 189.633365 144.948553 187.776341 140.274492 187.776341 
C 135.600432 187.776341 131.117179 189.633365 127.812119 192.938425 
C 124.507059 196.243485 122.650035 200.726738 122.650035 205.400799 
C 122.650035 210.074859 124.507059 214.558112 127.812119 217.863172 
C 131.117179 221.168232 135.600432 223.025256 140.274492 223.025256 
z
" style="fill:#482878;fill-opacity:0.5;stroke:#482878;stroke-opacity:0.5;"/>
    <path clip-path="url(#p0dfe3cf001)" d="M 147.352654 217.009974 
C 147.352654 217.009974 147.352654 217.009974 147.352654 217.009974 
C 147.352654 217.009974 147.352654 217.009974 147.352654 217.009974 
C 147.352654 217.009974 147.352654 217.009974 147.352654 217.009974 
C 147.352654 217.009974 147.352654 217.009974 147.352654 217.009974 
C 147.352654 217.009974 147.352654 217.009974 147.352654 217.009974 
C 147.352654 217.009974 147.352654 217.009974 147.352654 217.009974 
C 147.352654 217.009974 147.352654 217.009974 147.352654 217.009974 
C 147.352654 217.009974 147.352654 217.009974 147.352654 217.009974 
z
" style="fill:#440154;fill-opacity:0.5;stroke:#440154;stroke-opacity:0.5;"/>
    <path clip-path="url(#p0dfe3cf001)" d="M 154.430815 224.596688 
C 157.469098 224.596688 160.38335 223.389566 162.531741 221.241175 
C 164.680132 219.092784 165.887254 216.178532 165.887254 213.140249 
C 165.887254 210.101966 164.680132 207.187714 162.531741 205.039323 
C 160.38335 202.890932 157.469098 201.68381 154.430815 201.68381 
C 151.392532 201.68381 148.47828 202.890932 146.329889 205.039323 
C 144.181498 207.187714 142.974376 210.101966 142.974376 213.140249 
C 142.974376 216.178532 144.181498 219.092784 146.329889 221.241175 
C 148.47828 223.389566 151.392532 224.596688 154.430815 224.596688 
z
" style="fill:#31688e;fill-opacity:0.5;stroke:#31688e;stroke-opacity:0.5;"/>
    <path clip-path="url(#p0dfe3cf001)" d="M 161.508976 161.302414 
C 166.234158 161.302414 170.766444 159.42508 174.107652 156.083872 
C 177.44886 152.742664 179.326194 148.210378 179.326194 143.485196 
C 179.326194 138.760015 177.44886 134.227729 174.107652 130.886521 
C 170.766444 127.545313 166.234158 125.667979 161.508976 125.667979 
C 156.783795 125.667979 152.251509 127.545313 148.910301 130.886521 
C 145.569093 134.227729 143.691759 138.760015 143.691759 143.485196 
C 143.691759 148.210378 145.569093 152.742664 148.910301 156.083872 
C 152.251509 159.42508 156.783795 161.302414 161.508976 161.302414 
z
" style="fill:#482878;fill-opacity:0.5;stroke:#482878;stroke-opacity:0.5;"/>
    <path clip-path="url(#p0dfe3cf001)" d="M 168.587138 200.5285 
C 171.400041 200.5285 174.098114 199.410921 176.087138 197.421898 
C 178.076161 195.432875 179.193739 192.734802 179.193739 189.921898 
C 179.193739 187.108994 178.076161 184.410921 176.087138 182.421898 
C 174.098114 180.432875 171.400041 179.315296 168.587138 179.315296 
C 165.774234 179.315296 163.076161 180.432875 161.087138 182.421898 
C 159.098114 184.410921 157.980536 187.108994 157.980536 189.921898 
C 157.980536 192.734802 159.098114 195.432875 161.087138 197.421898 
C 163.076161 199.410921 165.774234 200.5285 168.587138 200.5285 
z
" style="fill:#26828e;fill-opacity:0.5;stroke:#26828e;stroke-opacity:0.5;"/>
    <path clip-path="url(#p0dfe3cf001)" d="M 175.665299 162.833822 
C 175.665299 162.833822 175.665299 162.833822 175.665299 162.833822 
C 175.665299 162.833822 175.665299 162.833822 175.665299 162.833822 
C 175.665299 162.833822 175.665299 162.833822 175.665299 162.833822 
C 175.665299 162.833822 175.665299 162.833822 175.665299 162.833822 
C 175.665299 162.833822 175.665299 162.833822 175.665299 162.833822 
C 175.665299 162.833822 175.665299 162.833822 175.665299 162.833822 
C 175.665299 162.833822 175.665299 162.833822 175.665299 162.833822 
C 175.665299 162.833822 175.665299 162.833822 175.665299 162.833822 
z
" style="fill:#440154;fill-opacity:0.5;stroke:#440154;stroke-opacity:0.5;"/>
    <path clip-path="url(#p0dfe3cf001)" d="M 182.74346 120.266846 
C 182.74346 120.266846 182.74346 120.266846 182.74346 120.266846 
C 182.74346 120.266846 182.74346 120.266846 182.74346 120.266846 
C 182.74346 120.266846 182.74346 120.266846 182.74346 120.266846 
C 182.74346 120.266846 182.74346 120.266846 182.74346 120.266846 
C 182.74346 120.266846 182.74346 120.266846 182.74346 120.266846 
C 182.74346 120.266846 182.74346 120.266846 182.74346 120.266846 
C 182.74346 120.266846 182.74346 120.266846 182.74346 120.266846 
C 182.74346 120.266846 182.74346 120.266846 182.74346 120.266846 
z
" style="fill:#440154;fill-opacity:0.5;stroke:#440154;stroke-opacity:0.5;"/>
    <path clip-path="url(#p0dfe3cf001)" d="M 189.821622 77.699869 
C 189.821622 77.699869 189.821622 77.699869 189.821622 77.699869 
C 189.821622 77.699869 189.821622 77.699869 189.821622 77.699869 
C 189.821622 77.699869 189.821622 77.699869 189.821622 77.699869 
C 189.821622 77.699869 189.821622 77.699869 189.821622 77.699869 
C 189.821622 77.699869 189.821622 77.699869 189.821622 77.699869 
C 189.821622 77.699869 189.821622 77.699869 189.821622 77.699869 
C 189.821622 77.699869 189.821622 77.699869 189.821622 77.699869 
C 189.821622 77.699869 189.821622 77.699869 189.821622 77.699869 
z
" style="fill:#440154;fill-opacity:0.5;stroke:#440154;stroke-opacity:0.5;"/>
    <path clip-path="url(#p0dfe3cf001)" d="M 196.899783 128.006296 
C 196.899783 128.006296 196.899783 128.006296 196.899783 128.006296 
C 196.899783 128.006296 196.899783 128.006296 196.899783 128.006296 
C 196.899783 128.006296 196.899783 128.006296 196.899783 128.006296 
C 196.899783 128.006296 196.899783 128.006296 196.899783 128.006296 
C 196.899783 128.006296 196.899783 128.006296 196.899783 128.006296 
C 196.899783 128.006296 196.899783 128.006296 196.899783 128.006296 
C 196.899783 128.006296 196.899783 128.006296 196.899783 128.006296 
C 196.899783 128.006296 196.899783 128.006296 196.899783 128.006296 
z
" style="fill:#440154;fill-opacity:0.5;stroke:#440154;stroke-opacity:0.5;"/>
    <path clip-path="url(#p0dfe3cf001)" d="M 203.977945 135.745746 
C 203.977945 135.745746 203.977945 135.745746 203.977945 135.745746 
C 203.977945 135.745746 203.977945 135.745746 203.977945 135.745746 
C 203.977945 135.745746 203.977945 135.745746 203.977945 135.745746 
C 203.977945 135.745746 203.977945 135.745746 203.977945 135.745746 
C 203.977945 135.745746 203.977945 135.745746 203.977945 135.745746 
C 203.977945 135.745746 203.977945 135.745746 203.977945 135.745746 
C 203.977945 135.745746 203.977945 135.745746 203.977945 135.745746 
C 203.977945 135.745746 203.977945 135.745746 203.977945 135.745746 
z
" style="fill:#440154;fill-opacity:0.5;stroke:#440154;stroke-opacity:0.5;"/>
    <path clip-path="url(#p0dfe3cf001)" d="M 211.056106 151.224647 
C 211.056106 151.224647 211.056106 151.224647 211.056106 151.224647 
C 211.056106 151.224647 211.056106 151.224647 211.056106 151.224647 
C 211.056106 151.224647 211.056106 151.224647 211.056106 151.224647 
C 211.056106 151.224647 211.056106 151.224647 211.056106 151.224647 
C 211.056106 151.224647 211.056106 151.224647 211.056106 151.224647 
C 211.056106 151.224647 211.056106 151.224647 211.056106 151.224647 
C 211.056106 151.224647 211.056106 151.224647 211.056106 151.224647 
C 211.056106 151.224647 211.056106 151.224647 211.056106 151.224647 
z
" style="fill:#440154;fill-opacity:0.5;stroke:#440154;stroke-opacity:0.5;"/>
    <path clip-path="url(#p0dfe3cf001)" d="M 218.134267 97.048495 
C 218.134267 97.048495 218.134267 97.048495 218.134267 97.048495 
C 218.134267 97.048495 218.134267 97.048495 218.134267 97.048495 
C 218.134267 97.048495 218.134267 97.048495 218.134267 97.048495 
C 218.134267 97.048495 218.134267 97.048495 218.134267 97.048495 
C 218.134267 97.048495 218.134267 97.048495 218.134267 97.048495 
C 218.134267 97.048495 218.134267 97.048495 218.134267 97.048495 
C 218.134267 97.048495 218.134267 97.048495 218.134267 97.048495 
C 218.134267 97.048495 218.134267 97.048495 218.134267 97.048495 
z
" style="fill:#440154;fill-opacity:0.5;stroke:#440154;stroke-opacity:0.5;"/>
    <path clip-path="url(#p0dfe3cf001)" d="M 225.212429 118.554344 
C 228.86332 118.554344 232.365173 117.10383 234.946743 114.522259 
C 237.528313 111.940689 238.978828 108.438837 238.978828 104.787945 
C 238.978828 101.137053 237.528313 97.635201 234.946743 95.053631 
C 232.365173 92.47206 228.86332 91.021546 225.212429 91.021546 
C 221.561537 91.021546 218.059685 92.47206 215.478114 95.053631 
C 212.896544 97.635201 211.446029 101.137053 211.446029 104.787945 
C 211.446029 108.438837 212.896544 111.940689 215.478114 114.522259 
C 218.059685 117.10383 221.561537 118.554344 225.212429 118.554344 
z
" style="fill:#482878;fill-opacity:0.5;stroke:#482878;stroke-opacity:0.5;"/>
    <path clip-path="url(#p0dfe3cf001)" d="M 232.29059 118.0958 
C 235.819874 118.0958 239.205083 116.6936 241.700664 114.198019 
C 244.196245 111.702439 245.598445 108.317229 245.598445 104.787945 
C 245.598445 101.258661 244.196245 97.873452 241.700664 95.377871 
C 239.205083 92.88229 235.819874 91.48009 232.29059 91.48009 
C 228.761306 91.48009 225.376096 92.88229 222.880516 95.377871 
C 220.384935 97.873452 218.982735 101.258661 218.982735 104.787945 
C 218.982735 108.317229 220.384935 111.702439 222.880516 114.198019 
C 225.376096 116.6936 228.761306 118.0958 232.29059 118.0958 
z
" style="fill:#482878;fill-opacity:0.5;stroke:#482878;stroke-opacity:0.5;"/>
    <path clip-path="url(#p0dfe3cf001)" d="M 239.368751 62.220968 
C 239.368751 62.220968 239.368751 62.220968 239.368751 62.220968 
C 239.368751 62.220968 239.368751 62.220968 239.368751 62.220968 
C 239.368751 62.220968 239.368751 62.220968 239.368751 62.220968 
C 239.368751 62.220968 239.368751 62.220968 239.368751 62.220968 
C 239.368751 62.220968 239.368751 62.220968 239.368751 62.220968 
C 239.368751 62.220968 239.368751 62.220968 239.368751 62.220968 
C 239.368751 62.220968 239.368751 62.220968 239.368751 62.220968 
C 239.368751 62.220968 239.368751 62.220968 239.368751 62.220968 
z
" style="fill:#440154;fill-opacity:0.5;stroke:#440154;stroke-opacity:0.5;"/>
    <path clip-path="url(#p0dfe3cf001)" d="M 246.446913 92.939319 
C 248.435936 92.939319 250.343762 92.149072 251.750214 90.74262 
C 253.156665 89.336168 253.946913 87.428343 253.946913 85.439319 
C 253.946913 83.450296 253.156665 81.54247 251.750214 80.136018 
C 250.343762 78.729567 248.435936 77.939319 246.446913 77.939319 
C 244.457889 77.939319 242.550064 78.729567 241.143612 80.136018 
C 239.73716 81.54247 238.946913 83.450296 238.946913 85.439319 
C 238.946913 87.428343 239.73716 89.336168 241.143612 90.74262 
C 242.550064 92.149072 244.457889 92.939319 246.446913 92.939319 
z
" style="fill:#3e4989;fill-opacity:0.5;stroke:#3e4989;stroke-opacity:0.5;"/>
    <path clip-path="url(#p0dfe3cf001)" d="M 253.525074 115.071427 
C 256.252285 115.071427 258.868164 113.987894 260.796594 112.059465 
C 262.725023 110.131035 263.808556 107.515156 263.808556 104.787945 
C 263.808556 102.060734 262.725023 99.444855 260.796594 97.516425 
C 258.868164 95.587996 256.252285 94.504463 253.525074 94.504463 
C 250.797863 94.504463 248.181984 95.587996 246.253554 97.516425 
C 244.325125 99.444855 243.241592 102.060734 243.241592 104.787945 
C 243.241592 107.515156 244.325125 110.131035 246.253554 112.059465 
C 248.181984 113.987894 250.797863 115.071427 253.525074 115.071427 
z
" style="fill:#31688e;fill-opacity:0.5;stroke:#31688e;stroke-opacity:0.5;"/>
    <path clip-path="url(#p0dfe3cf001)" d="M 260.603235 158.964097 
C 260.603235 158.964097 260.603235 158.964097 260.603235 158.964097 
C 260.603235 158.964097 260.603235 158.964097 260.603235 158.964097 
C 260.603235 158.964097 260.603235 158.964097 260.603235 158.964097 
C 260.603235 158.964097 260.603235 158.964097 260.603235 158.964097 
C 260.603235 158.964097 260.603235 158.964097 260.603235 158.964097 
C 260.603235 158.964097 260.603235 158.964097 260.603235 158.964097 
C 260.603235 158.964097 260.603235 158.964097 260.603235 158.964097 
C 260.603235 158.964097 260.603235 158.964097 260.603235 158.964097 
z
" style="fill:#440154;fill-opacity:0.5;stroke:#440154;stroke-opacity:0.5;"/>
    <path clip-path="url(#p0dfe3cf001)" d="M 267.681397 161.286953 
C 270.349951 161.286953 272.909568 160.226725 274.796521 158.339771 
C 276.683475 156.452818 277.743703 153.893201 277.743703 151.224647 
C 277.743703 148.556092 276.683475 145.996475 274.796521 144.109522 
C 272.909568 142.222569 270.349951 141.162341 267.681397 141.162341 
C 265.012842 141.162341 262.453225 142.222569 260.566272 144.109522 
C 258.679319 145.996475 257.619091 148.556092 257.619091 151.224647 
C 257.619091 153.893201 258.679319 156.452818 260.566272 158.339771 
C 262.453225 160.226725 265.012842 161.286953 267.681397 161.286953 
z
" style="fill:#31688e;fill-opacity:0.5;stroke:#31688e;stroke-opacity:0.5;"/>
    <path clip-path="url(#p0dfe3cf001)" d="M 274.759558 128.006296 
C 274.759558 128.006296 274.759558 128.006296 274.759558 128.006296 
C 274.759558 128.006296 274.759558 128.006296 274.759558 128.006296 
C 274.759558 128.006296 274.759558 128.006296 274.759558 128.006296 
C 274.759558 128.006296 274.759558 128.006296 274.759558 128.006296 
C 274.759558 128.006296 274.759558 128.006296 274.759558 128.006296 
C 274.759558 128.006296 274.759558 128.006296 274.759558 128.006296 
C 274.759558 128.006296 274.759558 128.006296 274.759558 128.006296 
C 274.759558 128.006296 274.759558 128.006296 274.759558 128.006296 
z
" style="fill:#440154;fill-opacity:0.5;stroke:#440154;stroke-opacity:0.5;"/>
    <path clip-path="url(#p0dfe3cf001)" d="M 281.837719 141.118443 
C 286.341365 141.118443 290.661159 139.329126 293.845717 136.144568 
C 297.030275 132.96001 298.819592 128.640216 298.819592 124.136571 
C 298.819592 119.632925 297.030275 115.313132 293.845717 112.128573 
C 290.661159 108.944015 286.341365 107.154698 281.837719 107.154698 
C 277.334074 107.154698 273.01428 108.944015 269.829722 112.128573 
C 266.645164 115.313132 264.855847 119.632925 264.855847 124.136571 
C 264.855847 128.640216 266.645164 132.96001 269.829722 136.144568 
C 273.01428 139.329126 277.334074 141.118443 281.837719 141.118443 
z
" style="fill:#482878;fill-opacity:0.5;stroke:#482878;stroke-opacity:0.5;"/>
    <path clip-path="url(#p0dfe3cf001)" d="M 288.915881 163.318033 
C 292.123084 163.318033 295.199361 162.043798 297.467197 159.775962 
C 299.735032 157.508127 301.009267 154.43185 301.009267 151.224647 
C 301.009267 148.017443 299.735032 144.941166 297.467197 142.673331 
C 295.199361 140.405496 292.123084 139.13126 288.915881 139.13126 
C 285.708677 139.13126 282.632401 140.405496 280.364565 142.673331 
C 278.09673 144.941166 276.822494 148.017443 276.822494 151.224647 
C 276.822494 154.43185 278.09673 157.508127 280.364565 159.775962 
C 282.632401 162.043798 285.708677 163.318033 288.915881 163.318033 
z
" style="fill:#31688e;fill-opacity:0.5;stroke:#31688e;stroke-opacity:0.5;"/>
    <path clip-path="url(#p0dfe3cf001)" d="M 295.994042 178.368059 
C 300.11377 178.368059 304.065319 176.731273 306.978406 173.818186 
C 309.891493 170.905099 311.528279 166.95355 311.528279 162.833822 
C 311.528279 158.714095 309.891493 154.762546 306.978406 151.849458 
C 304.065319 148.936371 300.11377 147.299586 295.994042 147.299586 
C 291.874315 147.299586 287.922766 148.936371 285.009678 151.849458 
C 282.096591 154.762546 280.459806 158.714095 280.459806 162.833822 
C 280.459806 166.95355 282.096591 170.905099 285.009678 173.818186 
C 287.922766 176.731273 291.874315 178.368059 295.994042 178.368059 
z
" style="fill:#6ece58;fill-opacity:0.5;stroke:#6ece58;stroke-opacity:0.5;"/>
    <path clip-path="url(#p0dfe3cf001)" d="M 303.072204 166.703547 
C 303.072204 166.703547 303.072204 166.703547 303.072204 166.703547 
C 303.072204 166.703547 303.072204 166.703547 303.072204 166.703547 
C 303.072204 166.703547 303.072204 166.703547 303.072204 166.703547 
C 303.072204 166.703547 303.072204 166.703547 303.072204 166.703547 
C 303.072204 166.703547 303.072204 166.703547 303.072204 166.703547 
C 303.072204 166.703547 303.072204 166.703547 303.072204 166.703547 
C 303.072204 166.703547 303.072204 166.703547 303.072204 166.703547 
C 303.072204 166.703547 303.072204 166.703547 303.072204 166.703547 
z
" style="fill:#440154;fill-opacity:0.5;stroke:#440154;stroke-opacity:0.5;"/>
    <path clip-path="url(#p0dfe3cf001)" d="M 310.150365 170.608996 
C 315.291154 170.608996 320.222083 168.566539 323.85717 164.931452 
C 327.492257 161.296364 329.534714 156.365436 329.534714 151.224647 
C 329.534714 146.083857 327.492257 141.152929 323.85717 137.517842 
C 320.222083 133.882755 315.291154 131.840297 310.150365 131.840297 
C 305.009575 131.840297 300.078647 133.882755 296.44356 137.517842 
C 292.808473 141.152929 290.766016 146.083857 290.766016 151.224647 
C 290.766016 156.365436 292.808473 161.296364 296.44356 164.931452 
C 300.078647 168.566539 305.009575 170.608996 310.150365 170.608996 
z
" style="fill:#fde725;fill-opacity:0.5;stroke:#fde725;stroke-opacity:0.5;"/>
    <path clip-path="url(#p0dfe3cf001)" d="M 317.228526 138.325563 
C 317.228526 138.325563 317.228526 138.325563 317.228526 138.325563 
C 317.228526 138.325563 317.228526 138.325563 317.228526 138.325563 
C 317.228526 138.325563 317.228526 138.325563 317.228526 138.325563 
C 317.228526 138.325563 317.228526 138.325563 317.228526 138.325563 
C 317.228526 138.325563 317.228526 138.325563 317.228526 138.325563 
C 317.228526 138.325563 317.228526 138.325563 317.228526 138.325563 
C 317.228526 138.325563 317.228526 138.325563 317.228526 138.325563 
C 317.228526 138.325563 317.228526 138.325563 317.228526 138.325563 
z
" style="fill:#440154;fill-opacity:0.5;stroke:#440154;stroke-opacity:0.5;"/>
    <path clip-path="url(#p0dfe3cf001)" d="M 324.306688 147.009467 
C 330.030563 147.009467 335.520774 144.735347 339.568165 140.687956 
C 343.615556 136.640565 345.889676 131.150354 345.889676 125.426479 
C 345.889676 119.702604 343.615556 114.212393 339.568165 110.165002 
C 335.520774 106.117611 330.030563 103.843491 324.306688 103.843491 
C 318.582812 103.843491 313.092601 106.117611 309.04521 110.165002 
C 304.997819 114.212393 302.7237 119.702604 302.7237 125.426479 
C 302.7237 131.150354 304.997819 136.640565 309.04521 140.687956 
C 313.092601 144.735347 318.582812 147.009467 324.306688 147.009467 
z
" style="fill:#482878;fill-opacity:0.5;stroke:#482878;stroke-opacity:0.5;"/>
    <path clip-path="url(#p0dfe3cf001)" d="M 331.384849 112.527395 
C 331.384849 112.527395 331.384849 112.527395 331.384849 112.527395 
C 331.384849 112.527395 331.384849 112.527395 331.384849 112.527395 
C 331.384849 112.527395 331.384849 112.527395 331.384849 112.527395 
C 331.384849 112.527395 331.384849 112.527395 331.384849 112.527395 
C 331.384849 112.527395 331.384849 112.527395 331.384849 112.527395 
C 331.384849 112.527395 331.384849 112.527395 331.384849 112.527395 
C 331.384849 112.527395 331.384849 112.527395 331.384849 112.527395 
C 331.384849 112.527395 331.384849 112.527395 331.384849 112.527395 
z
" style="fill:#440154;fill-opacity:0.5;stroke:#440154;stroke-opacity:0.5;"/>
    <path clip-path="url(#p0dfe3cf001)" d="M 338.46301 127.018772 
C 342.306168 127.018772 345.992438 125.491869 348.709961 122.774346 
C 351.427484 120.056823 352.954387 116.370553 352.954387 112.527395 
C 352.954387 108.684237 351.427484 104.997968 348.709961 102.280445 
C 345.992438 99.562921 342.306168 98.036019 338.46301 98.036019 
C 334.619852 98.036019 330.933583 99.562921 328.21606 102.280445 
C 325.498536 104.997968 323.971634 108.684237 323.971634 112.527395 
C 323.971634 116.370553 325.498536 120.056823 328.21606 122.774346 
C 330.933583 125.491869 334.619852 127.018772 338.46301 127.018772 
z
" style="fill:#1f9e89;fill-opacity:0.5;stroke:#1f9e89;stroke-opacity:0.5;"/>
    <path clip-path="url(#p0dfe3cf001)" d="M 345.541172 170.573272 
C 345.541172 170.573272 345.541172 170.573272 345.541172 170.573272 
C 345.541172 170.573272 345.541172 170.573272 345.541172 170.573272 
C 345.541172 170.573272 345.541172 170.573272 345.541172 170.573272 
C 345.541172 170.573272 345.541172 170.573272 345.541172 170.573272 
C 345.541172 170.573272 345.541172 170.573272 345.541172 170.573272 
C 345.541172 170.573272 345.541172 170.573272 345.541172 170.573272 
C 345.541172 170.573272 345.541172 170.573272 345.541172 170.573272 
C 345.541172 170.573272 345.541172 170.573272 345.541172 170.573272 
z
" style="fill:#440154;fill-opacity:0.5;stroke:#440154;stroke-opacity:0.5;"/>
    <path clip-path="url(#p0dfe3cf001)" d="M 352.619333 170.573272 
C 352.619333 170.573272 352.619333 170.573272 352.619333 170.573272 
C 352.619333 170.573272 352.619333 170.573272 352.619333 170.573272 
C 352.619333 170.573272 352.619333 170.573272 352.619333 170.573272 
C 352.619333 170.573272 352.619333 170.573272 352.619333 170.573272 
C 352.619333 170.573272 352.619333 170.573272 352.619333 170.573272 
C 352.619333 170.573272 352.619333 170.573272 352.619333 170.573272 
C 352.619333 170.573272 352.619333 170.573272 352.619333 170.573272 
C 352.619333 170.573272 352.619333 170.573272 352.619333 170.573272 
z
" style="fill:#440154;fill-opacity:0.5;stroke:#440154;stroke-opacity:0.5;"/>
    <path clip-path="url(#p0dfe3cf001)" d="M 359.697494 189.612045 
C 363.720373 189.612045 367.579026 188.013738 370.423631 185.169134 
C 373.268235 182.324529 374.866542 178.465876 374.866542 174.442998 
C 374.866542 170.420119 373.268235 166.561466 370.423631 163.716861 
C 367.579026 160.872257 363.720373 159.27395 359.697494 159.27395 
C 355.674616 159.27395 351.815963 160.872257 348.971358 163.716861 
C 346.126753 166.561466 344.528447 170.420119 344.528447 174.442998 
C 344.528447 178.465876 346.126753 182.324529 348.971358 185.169134 
C 351.815963 188.013738 355.674616 189.612045 359.697494 189.612045 
z
" style="fill:#1f9e89;fill-opacity:0.5;stroke:#1f9e89;stroke-opacity:0.5;"/>
    <path clip-path="url(#p0dfe3cf001)" d="M 366.775656 182.182448 
C 366.775656 182.182448 366.775656 182.182448 366.775656 182.182448 
C 366.775656 182.182448 366.775656 182.182448 366.775656 182.182448 
C 366.775656 182.182448 366.775656 182.182448 366.775656 182.182448 
C 366.775656 182.182448 366.775656 182.182448 366.775656 182.182448 
C 366.775656 182.182448 366.775656 182.182448 366.775656 182.182448 
C 366.775656 182.182448 366.775656 182.182448 366.775656 182.182448 
C 366.775656 182.182448 366.775656 182.182448 366.775656 182.182448 
C 366.775656 182.182448 366.775656 182.182448 366.775656 182.182448 
z
" style="fill:#440154;fill-opacity:0.5;stroke:#440154;stroke-opacity:0.5;"/>
    <path clip-path="url(#p0dfe3cf001)" d="M 373.853817 155.094372 
C 373.853817 155.094372 373.853817 155.094372 373.853817 155.094372 
C 373.853817 155.094372 373.853817 155.094372 373.853817 155.094372 
C 373.853817 155.094372 373.853817 155.094372 373.853817 155.094372 
C 373.853817 155.094372 373.853817 155.094372 373.853817 155.094372 
C 373.853817 155.094372 373.853817 155.094372 373.853817 155.094372 
C 373.853817 155.094372 373.853817 155.094372 373.853817 155.094372 
C 373.853817 155.094372 373.853817 155.094372 373.853817 155.094372 
C 373.853817 155.094372 373.853817 155.094372 373.853817 155.094372 
z
" style="fill:#440154;fill-opacity:0.5;stroke:#440154;stroke-opacity:0.5;"/>
    <path clip-path="url(#p0dfe3cf001)" d="M 380.931978 89.309044 
C 380.931978 89.309044 380.931978 89.309044 380.931978 89.309044 
C 380.931978 89.309044 380.931978 89.309044 380.931978 89.309044 
C 380.931978 89.309044 380.931978 89.309044 380.931978 89.309044 
C 380.931978 89.309044 380.931978 89.309044 380.931978 89.309044 
C 380.931978 89.309044 380.931978 89.309044 380.931978 89.309044 
C 380.931978 89.309044 380.931978 89.309044 380.931978 89.309044 
C 380.931978 89.309044 380.931978 89.309044 380.931978 89.309044 
C 380.931978 89.309044 380.931978 89.309044 380.931978 89.309044 
z
" style="fill:#440154;fill-opacity:0.5;stroke:#440154;stroke-opacity:0.5;"/>
    <path clip-path="url(#p0dfe3cf001)" d="M 388.01014 116.087267 
C 392.033018 116.087267 395.891672 114.488961 398.736276 111.644356 
C 401.580881 108.799752 403.179187 104.941098 403.179187 100.91822 
C 403.179187 96.895341 401.580881 93.036688 398.736276 90.192084 
C 395.891672 87.347479 392.033018 85.749172 388.01014 85.749172 
C 383.987261 85.749172 380.128608 87.347479 377.284004 90.192084 
C 374.439399 93.036688 372.841092 96.895341 372.841092 100.91822 
C 372.841092 104.941098 374.439399 108.799752 377.284004 111.644356 
C 380.128608 114.488961 383.987261 116.087267 388.01014 116.087267 
z
" style="fill:#1f9e89;fill-opacity:0.5;stroke:#1f9e89;stroke-opacity:0.5;"/>
    <path clip-path="url(#p0dfe3cf001)" d="M 395.088301 166.703547 
C 395.088301 166.703547 395.088301 166.703547 395.088301 166.703547 
C 395.088301 166.703547 395.088301 166.703547 395.088301 166.703547 
C 395.088301 166.703547 395.088301 166.703547 395.088301 166.703547 
C 395.088301 166.703547 395.088301 166.703547 395.088301 166.703547 
C 395.088301 166.703547 395.088301 166.703547 395.088301 166.703547 
C 395.088301 166.703547 395.088301 166.703547 395.088301 166.703547 
C 395.088301 166.703547 395.088301 166.703547 395.088301 166.703547 
C 395.088301 166.703547 395.088301 166.703547 395.088301 166.703547 
z
" style="fill:#440154;fill-opacity:0.5;stroke:#440154;stroke-opacity:0.5;"/>
   </g>
   <g id="matplotlib.axis_1">
    <g id="xtick_1">
     <g id="line2d_1">
      <defs>
       <path d="M 0 0 
L 0 3.5 
" id="m17948574bb" style="stroke:#000000;stroke-width:0.8;"/>
      </defs>
      <g>
       <use style="stroke:#000000;stroke-width:0.8;" x="76.57104" xlink:href="#m17948574bb" y="307.584"/>
      </g>
     </g>
     <g id="text_1">
      <!-- 0 -->
      <defs>
       <path d="M 31.78125 66.40625 
Q 24.171875 66.40625 20.328125 58.90625 
Q 16.5 51.421875 16.5 36.375 
Q 16.5 21.390625 20.328125 13.890625 
Q 24.171875 6.390625 31.78125 6.390625 
Q 39.453125 6.390625 43.28125 13.890625 
Q 47.125 21.390625 47.125 36.375 
Q 47.125 51.421875 43.28125 58.90625 
Q 39.453125 66.40625 31.78125 66.40625 
z
M 31.78125 74.21875 
Q 44.046875 74.21875 50.515625 64.515625 
Q 56.984375 54.828125 56.984375 36.375 
Q 56.984375 17.96875 50.515625 8.265625 
Q 44.046875 -1.421875 31.78125 -1.421875 
Q 19.53125 -1.421875 13.0625 8.265625 
Q 6.59375 17.96875 6.59375 36.375 
Q 6.59375 54.828125 13.0625 64.515625 
Q 19.53125 74.21875 31.78125 74.21875 
z
" id="DejaVuSans-48"/>
      </defs>
      <g transform="translate(73.38979 322.182437)scale(0.1 -0.1)">
       <use xlink:href="#DejaVuSans-48"/>
      </g>
     </g>
    </g>
    <g id="xtick_2">
     <g id="line2d_2">
      <g>
       <use style="stroke:#000000;stroke-width:0.8;" x="147.352654" xlink:href="#m17948574bb" y="307.584"/>
      </g>
     </g>
     <g id="text_2">
      <!-- 10 -->
      <defs>
       <path d="M 12.40625 8.296875 
L 28.515625 8.296875 
L 28.515625 63.921875 
L 10.984375 60.40625 
L 10.984375 69.390625 
L 28.421875 72.90625 
L 38.28125 72.90625 
L 38.28125 8.296875 
L 54.390625 8.296875 
L 54.390625 0 
L 12.40625 0 
z
" id="DejaVuSans-49"/>
      </defs>
      <g transform="translate(140.990154 322.182437)scale(0.1 -0.1)">
       <use xlink:href="#DejaVuSans-49"/>
       <use x="63.623047" xlink:href="#DejaVuSans-48"/>
      </g>
     </g>
    </g>
    <g id="xtick_3">
     <g id="line2d_3">
      <g>
       <use style="stroke:#000000;stroke-width:0.8;" x="218.134267" xlink:href="#m17948574bb" y="307.584"/>
      </g>
     </g>
     <g id="text_3">
      <!-- 20 -->
      <defs>
       <path d="M 19.1875 8.296875 
L 53.609375 8.296875 
L 53.609375 0 
L 7.328125 0 
L 7.328125 8.296875 
Q 12.9375 14.109375 22.625 23.890625 
Q 32.328125 33.6875 34.8125 36.53125 
Q 39.546875 41.84375 41.421875 45.53125 
Q 43.3125 49.21875 43.3125 52.78125 
Q 43.3125 58.59375 39.234375 62.25 
Q 35.15625 65.921875 28.609375 65.921875 
Q 23.96875 65.921875 18.8125 64.3125 
Q 13.671875 62.703125 7.8125 59.421875 
L 7.8125 69.390625 
Q 13.765625 71.78125 18.9375 73 
Q 24.125 74.21875 28.421875 74.21875 
Q 39.75 74.21875 46.484375 68.546875 
Q 53.21875 62.890625 53.21875 53.421875 
Q 53.21875 48.921875 51.53125 44.890625 
Q 49.859375 40.875 45.40625 35.40625 
Q 44.1875 33.984375 37.640625 27.21875 
Q 31.109375 20.453125 19.1875 8.296875 
z
" id="DejaVuSans-50"/>
      </defs>
      <g transform="translate(211.771767 322.182437)scale(0.1 -0.1)">
       <use xlink:href="#DejaVuSans-50"/>
       <use x="63.623047" xlink:href="#DejaVuSans-48"/>
      </g>
     </g>
    </g>
    <g id="xtick_4">
     <g id="line2d_4">
      <g>
       <use style="stroke:#000000;stroke-width:0.8;" x="288.915881" xlink:href="#m17948574bb" y="307.584"/>
      </g>
     </g>
     <g id="text_4">
      <!-- 30 -->
      <defs>
       <path d="M 40.578125 39.3125 
Q 47.65625 37.796875 51.625 33 
Q 55.609375 28.21875 55.609375 21.1875 
Q 55.609375 10.40625 48.1875 4.484375 
Q 40.765625 -1.421875 27.09375 -1.421875 
Q 22.515625 -1.421875 17.65625 -0.515625 
Q 12.796875 0.390625 7.625 2.203125 
L 7.625 11.71875 
Q 11.71875 9.328125 16.59375 8.109375 
Q 21.484375 6.890625 26.8125 6.890625 
Q 36.078125 6.890625 40.9375 10.546875 
Q 45.796875 14.203125 45.796875 21.1875 
Q 45.796875 27.640625 41.28125 31.265625 
Q 36.765625 34.90625 28.71875 34.90625 
L 20.21875 34.90625 
L 20.21875 43.015625 
L 29.109375 43.015625 
Q 36.375 43.015625 40.234375 45.921875 
Q 44.09375 48.828125 44.09375 54.296875 
Q 44.09375 59.90625 40.109375 62.90625 
Q 36.140625 65.921875 28.71875 65.921875 
Q 24.65625 65.921875 20.015625 65.03125 
Q 15.375 64.15625 9.8125 62.3125 
L 9.8125 71.09375 
Q 15.4375 72.65625 20.34375 73.4375 
Q 25.25 74.21875 29.59375 74.21875 
Q 40.828125 74.21875 47.359375 69.109375 
Q 53.90625 64.015625 53.90625 55.328125 
Q 53.90625 49.265625 50.4375 45.09375 
Q 46.96875 40.921875 40.578125 39.3125 
z
" id="DejaVuSans-51"/>
      </defs>
      <g transform="translate(282.553381 322.182437)scale(0.1 -0.1)">
       <use xlink:href="#DejaVuSans-51"/>
       <use x="63.623047" xlink:href="#DejaVuSans-48"/>
      </g>
     </g>
    </g>
    <g id="xtick_5">
     <g id="line2d_5">
      <g>
       <use style="stroke:#000000;stroke-width:0.8;" x="359.697494" xlink:href="#m17948574bb" y="307.584"/>
      </g>
     </g>
     <g id="text_5">
      <!-- 40 -->
      <defs>
       <path d="M 37.796875 64.3125 
L 12.890625 25.390625 
L 37.796875 25.390625 
z
M 35.203125 72.90625 
L 47.609375 72.90625 
L 47.609375 25.390625 
L 58.015625 25.390625 
L 58.015625 17.1875 
L 47.609375 17.1875 
L 47.609375 0 
L 37.796875 0 
L 37.796875 17.1875 
L 4.890625 17.1875 
L 4.890625 26.703125 
z
" id="DejaVuSans-52"/>
      </defs>
      <g transform="translate(353.334994 322.182437)scale(0.1 -0.1)">
       <use xlink:href="#DejaVuSans-52"/>
       <use x="63.623047" xlink:href="#DejaVuSans-48"/>
      </g>
     </g>
    </g>
    <g id="text_6">
     <!-- Dias -->
     <defs>
      <path d="M 19.671875 64.796875 
L 19.671875 8.109375 
L 31.59375 8.109375 
Q 46.6875 8.109375 53.6875 14.9375 
Q 60.6875 21.78125 60.6875 36.53125 
Q 60.6875 51.171875 53.6875 57.984375 
Q 46.6875 64.796875 31.59375 64.796875 
z
M 9.8125 72.90625 
L 30.078125 72.90625 
Q 51.265625 72.90625 61.171875 64.09375 
Q 71.09375 55.28125 71.09375 36.53125 
Q 71.09375 17.671875 61.125 8.828125 
Q 51.171875 0 30.078125 0 
L 9.8125 0 
z
" id="DejaVuSans-68"/>
      <path d="M 9.421875 54.6875 
L 18.40625 54.6875 
L 18.40625 0 
L 9.421875 0 
z
M 9.421875 75.984375 
L 18.40625 75.984375 
L 18.40625 64.59375 
L 9.421875 64.59375 
z
" id="DejaVuSans-105"/>
      <path d="M 34.28125 27.484375 
Q 23.390625 27.484375 19.1875 25 
Q 14.984375 22.515625 14.984375 16.5 
Q 14.984375 11.71875 18.140625 8.90625 
Q 21.296875 6.109375 26.703125 6.109375 
Q 34.1875 6.109375 38.703125 11.40625 
Q 43.21875 16.703125 43.21875 25.484375 
L 43.21875 27.484375 
z
M 52.203125 31.203125 
L 52.203125 0 
L 43.21875 0 
L 43.21875 8.296875 
Q 40.140625 3.328125 35.546875 0.953125 
Q 30.953125 -1.421875 24.3125 -1.421875 
Q 15.921875 -1.421875 10.953125 3.296875 
Q 6 8.015625 6 15.921875 
Q 6 25.140625 12.171875 29.828125 
Q 18.359375 34.515625 30.609375 34.515625 
L 43.21875 34.515625 
L 43.21875 35.40625 
Q 43.21875 41.609375 39.140625 45 
Q 35.0625 48.390625 27.6875 48.390625 
Q 23 48.390625 18.546875 47.265625 
Q 14.109375 46.140625 10.015625 43.890625 
L 10.015625 52.203125 
Q 14.9375 54.109375 19.578125 55.046875 
Q 24.21875 56 28.609375 56 
Q 40.484375 56 46.34375 49.84375 
Q 52.203125 43.703125 52.203125 31.203125 
z
" id="DejaVuSans-97"/>
      <path d="M 44.28125 53.078125 
L 44.28125 44.578125 
Q 40.484375 46.53125 36.375 47.5 
Q 32.28125 48.484375 27.875 48.484375 
Q 21.1875 48.484375 17.84375 46.4375 
Q 14.5 44.390625 14.5 40.28125 
Q 14.5 37.15625 16.890625 35.375 
Q 19.28125 33.59375 26.515625 31.984375 
L 29.59375 31.296875 
Q 39.15625 29.25 43.1875 25.515625 
Q 47.21875 21.78125 47.21875 15.09375 
Q 47.21875 7.46875 41.1875 3.015625 
Q 35.15625 -1.421875 24.609375 -1.421875 
Q 20.21875 -1.421875 15.453125 -0.5625 
Q 10.6875 0.296875 5.421875 2 
L 5.421875 11.28125 
Q 10.40625 8.6875 15.234375 7.390625 
Q 20.0625 6.109375 24.8125 6.109375 
Q 31.15625 6.109375 34.5625 8.28125 
Q 37.984375 10.453125 37.984375 14.40625 
Q 37.984375 18.0625 35.515625 20.015625 
Q 33.0625 21.96875 24.703125 23.78125 
L 21.578125 24.515625 
Q 13.234375 26.265625 9.515625 29.90625 
Q 5.8125 33.546875 5.8125 39.890625 
Q 5.8125 47.609375 11.28125 51.796875 
Q 16.75 56 26.8125 56 
Q 31.78125 56 36.171875 55.265625 
Q 40.578125 54.546875 44.28125 53.078125 
z
" id="DejaVuSans-115"/>
     </defs>
     <g transform="translate(225.252187 335.860562)scale(0.1 -0.1)">
      <use xlink:href="#DejaVuSans-68"/>
      <use x="77.001953" xlink:href="#DejaVuSans-105"/>
      <use x="104.785156" xlink:href="#DejaVuSans-97"/>
      <use x="166.064453" xlink:href="#DejaVuSans-115"/>
     </g>
    </g>
   </g>
   <g id="matplotlib.axis_2">
    <g id="ytick_1">
     <g id="line2d_6">
      <defs>
       <path d="M 0 0 
L -3.5 0 
" id="mb18f3b6a4b" style="stroke:#000000;stroke-width:0.8;"/>
      </defs>
      <g>
       <use style="stroke:#000000;stroke-width:0.8;" x="57.6" xlink:href="#mb18f3b6a4b" y="282.795302"/>
      </g>
     </g>
     <g id="text_7">
      <!-- 93 -->
      <defs>
       <path d="M 10.984375 1.515625 
L 10.984375 10.5 
Q 14.703125 8.734375 18.5 7.8125 
Q 22.3125 6.890625 25.984375 6.890625 
Q 35.75 6.890625 40.890625 13.453125 
Q 46.046875 20.015625 46.78125 33.40625 
Q 43.953125 29.203125 39.59375 26.953125 
Q 35.25 24.703125 29.984375 24.703125 
Q 19.046875 24.703125 12.671875 31.3125 
Q 6.296875 37.9375 6.296875 49.421875 
Q 6.296875 60.640625 12.9375 67.421875 
Q 19.578125 74.21875 30.609375 74.21875 
Q 43.265625 74.21875 49.921875 64.515625 
Q 56.59375 54.828125 56.59375 36.375 
Q 56.59375 19.140625 48.40625 8.859375 
Q 40.234375 -1.421875 26.421875 -1.421875 
Q 22.703125 -1.421875 18.890625 -0.6875 
Q 15.09375 0.046875 10.984375 1.515625 
z
M 30.609375 32.421875 
Q 37.25 32.421875 41.125 36.953125 
Q 45.015625 41.5 45.015625 49.421875 
Q 45.015625 57.28125 41.125 61.84375 
Q 37.25 66.40625 30.609375 66.40625 
Q 23.96875 66.40625 20.09375 61.84375 
Q 16.21875 57.28125 16.21875 49.421875 
Q 16.21875 41.5 20.09375 36.953125 
Q 23.96875 32.421875 30.609375 32.421875 
z
" id="DejaVuSans-57"/>
      </defs>
      <g transform="translate(37.875 286.59452)scale(0.1 -0.1)">
       <use xlink:href="#DejaVuSans-57"/>
       <use x="63.623047" xlink:href="#DejaVuSans-51"/>
      </g>
     </g>
    </g>
    <g id="ytick_2">
     <g id="line2d_7">
      <g>
       <use style="stroke:#000000;stroke-width:0.8;" x="57.6" xlink:href="#mb18f3b6a4b" y="244.09805"/>
      </g>
     </g>
     <g id="text_8">
      <!-- 94 -->
      <g transform="translate(37.875 247.897269)scale(0.1 -0.1)">
       <use xlink:href="#DejaVuSans-57"/>
       <use x="63.623047" xlink:href="#DejaVuSans-52"/>
      </g>
     </g>
    </g>
    <g id="ytick_3">
     <g id="line2d_8">
      <g>
       <use style="stroke:#000000;stroke-width:0.8;" x="57.6" xlink:href="#mb18f3b6a4b" y="205.400799"/>
      </g>
     </g>
     <g id="text_9">
      <!-- 95 -->
      <defs>
       <path d="M 10.796875 72.90625 
L 49.515625 72.90625 
L 49.515625 64.59375 
L 19.828125 64.59375 
L 19.828125 46.734375 
Q 21.96875 47.46875 24.109375 47.828125 
Q 26.265625 48.1875 28.421875 48.1875 
Q 40.625 48.1875 47.75 41.5 
Q 54.890625 34.8125 54.890625 23.390625 
Q 54.890625 11.625 47.5625 5.09375 
Q 40.234375 -1.421875 26.90625 -1.421875 
Q 22.3125 -1.421875 17.546875 -0.640625 
Q 12.796875 0.140625 7.71875 1.703125 
L 7.71875 11.625 
Q 12.109375 9.234375 16.796875 8.0625 
Q 21.484375 6.890625 26.703125 6.890625 
Q 35.15625 6.890625 40.078125 11.328125 
Q 45.015625 15.765625 45.015625 23.390625 
Q 45.015625 31 40.078125 35.4375 
Q 35.15625 39.890625 26.703125 39.890625 
Q 22.75 39.890625 18.8125 39.015625 
Q 14.890625 38.140625 10.796875 36.28125 
z
" id="DejaVuSans-53"/>
      </defs>
      <g transform="translate(37.875 209.200017)scale(0.1 -0.1)">
       <use xlink:href="#DejaVuSans-57"/>
       <use x="63.623047" xlink:href="#DejaVuSans-53"/>
      </g>
     </g>
    </g>
    <g id="ytick_4">
     <g id="line2d_9">
      <g>
       <use style="stroke:#000000;stroke-width:0.8;" x="57.6" xlink:href="#mb18f3b6a4b" y="166.703547"/>
      </g>
     </g>
     <g id="text_10">
      <!-- 96 -->
      <defs>
       <path d="M 33.015625 40.375 
Q 26.375 40.375 22.484375 35.828125 
Q 18.609375 31.296875 18.609375 23.390625 
Q 18.609375 15.53125 22.484375 10.953125 
Q 26.375 6.390625 33.015625 6.390625 
Q 39.65625 6.390625 43.53125 10.953125 
Q 47.40625 15.53125 47.40625 23.390625 
Q 47.40625 31.296875 43.53125 35.828125 
Q 39.65625 40.375 33.015625 40.375 
z
M 52.59375 71.296875 
L 52.59375 62.3125 
Q 48.875 64.0625 45.09375 64.984375 
Q 41.3125 65.921875 37.59375 65.921875 
Q 27.828125 65.921875 22.671875 59.328125 
Q 17.53125 52.734375 16.796875 39.40625 
Q 19.671875 43.65625 24.015625 45.921875 
Q 28.375 48.1875 33.59375 48.1875 
Q 44.578125 48.1875 50.953125 41.515625 
Q 57.328125 34.859375 57.328125 23.390625 
Q 57.328125 12.15625 50.6875 5.359375 
Q 44.046875 -1.421875 33.015625 -1.421875 
Q 20.359375 -1.421875 13.671875 8.265625 
Q 6.984375 17.96875 6.984375 36.375 
Q 6.984375 53.65625 15.1875 63.9375 
Q 23.390625 74.21875 37.203125 74.21875 
Q 40.921875 74.21875 44.703125 73.484375 
Q 48.484375 72.75 52.59375 71.296875 
z
" id="DejaVuSans-54"/>
      </defs>
      <g transform="translate(37.875 170.502766)scale(0.1 -0.1)">
       <use xlink:href="#DejaVuSans-57"/>
       <use x="63.623047" xlink:href="#DejaVuSans-54"/>
      </g>
     </g>
    </g>
    <g id="ytick_5">
     <g id="line2d_10">
      <g>
       <use style="stroke:#000000;stroke-width:0.8;" x="57.6" xlink:href="#mb18f3b6a4b" y="128.006296"/>
      </g>
     </g>
     <g id="text_11">
      <!-- 97 -->
      <defs>
       <path d="M 8.203125 72.90625 
L 55.078125 72.90625 
L 55.078125 68.703125 
L 28.609375 0 
L 18.3125 0 
L 43.21875 64.59375 
L 8.203125 64.59375 
z
" id="DejaVuSans-55"/>
      </defs>
      <g transform="translate(37.875 131.805515)scale(0.1 -0.1)">
       <use xlink:href="#DejaVuSans-57"/>
       <use x="63.623047" xlink:href="#DejaVuSans-55"/>
      </g>
     </g>
    </g>
    <g id="ytick_6">
     <g id="line2d_11">
      <g>
       <use style="stroke:#000000;stroke-width:0.8;" x="57.6" xlink:href="#mb18f3b6a4b" y="89.309044"/>
      </g>
     </g>
     <g id="text_12">
      <!-- 98 -->
      <defs>
       <path d="M 31.78125 34.625 
Q 24.75 34.625 20.71875 30.859375 
Q 16.703125 27.09375 16.703125 20.515625 
Q 16.703125 13.921875 20.71875 10.15625 
Q 24.75 6.390625 31.78125 6.390625 
Q 38.8125 6.390625 42.859375 10.171875 
Q 46.921875 13.96875 46.921875 20.515625 
Q 46.921875 27.09375 42.890625 30.859375 
Q 38.875 34.625 31.78125 34.625 
z
M 21.921875 38.8125 
Q 15.578125 40.375 12.03125 44.71875 
Q 8.5 49.078125 8.5 55.328125 
Q 8.5 64.0625 14.71875 69.140625 
Q 20.953125 74.21875 31.78125 74.21875 
Q 42.671875 74.21875 48.875 69.140625 
Q 55.078125 64.0625 55.078125 55.328125 
Q 55.078125 49.078125 51.53125 44.71875 
Q 48 40.375 41.703125 38.8125 
Q 48.828125 37.15625 52.796875 32.3125 
Q 56.78125 27.484375 56.78125 20.515625 
Q 56.78125 9.90625 50.3125 4.234375 
Q 43.84375 -1.421875 31.78125 -1.421875 
Q 19.734375 -1.421875 13.25 4.234375 
Q 6.78125 9.90625 6.78125 20.515625 
Q 6.78125 27.484375 10.78125 32.3125 
Q 14.796875 37.15625 21.921875 38.8125 
z
M 18.3125 54.390625 
Q 18.3125 48.734375 21.84375 45.5625 
Q 25.390625 42.390625 31.78125 42.390625 
Q 38.140625 42.390625 41.71875 45.5625 
Q 45.3125 48.734375 45.3125 54.390625 
Q 45.3125 60.0625 41.71875 63.234375 
Q 38.140625 66.40625 31.78125 66.40625 
Q 25.390625 66.40625 21.84375 63.234375 
Q 18.3125 60.0625 18.3125 54.390625 
z
" id="DejaVuSans-56"/>
      </defs>
      <g transform="translate(37.875 93.108263)scale(0.1 -0.1)">
       <use xlink:href="#DejaVuSans-57"/>
       <use x="63.623047" xlink:href="#DejaVuSans-56"/>
      </g>
     </g>
    </g>
    <g id="ytick_7">
     <g id="line2d_12">
      <g>
       <use style="stroke:#000000;stroke-width:0.8;" x="57.6" xlink:href="#mb18f3b6a4b" y="50.611793"/>
      </g>
     </g>
     <g id="text_13">
      <!-- 99 -->
      <g transform="translate(37.875 54.411012)scale(0.1 -0.1)">
       <use xlink:href="#DejaVuSans-57"/>
       <use x="63.623047" xlink:href="#DejaVuSans-57"/>
      </g>
     </g>
    </g>
    <g id="text_14">
     <!-- Medida -->
     <defs>
      <path d="M 9.8125 72.90625 
L 24.515625 72.90625 
L 43.109375 23.296875 
L 61.8125 72.90625 
L 76.515625 72.90625 
L 76.515625 0 
L 66.890625 0 
L 66.890625 64.015625 
L 48.09375 14.015625 
L 38.1875 14.015625 
L 19.390625 64.015625 
L 19.390625 0 
L 9.8125 0 
z
" id="DejaVuSans-77"/>
      <path d="M 56.203125 29.59375 
L 56.203125 25.203125 
L 14.890625 25.203125 
Q 15.484375 15.921875 20.484375 11.0625 
Q 25.484375 6.203125 34.421875 6.203125 
Q 39.59375 6.203125 44.453125 7.46875 
Q 49.3125 8.734375 54.109375 11.28125 
L 54.109375 2.78125 
Q 49.265625 0.734375 44.1875 -0.34375 
Q 39.109375 -1.421875 33.890625 -1.421875 
Q 20.796875 -1.421875 13.15625 6.1875 
Q 5.515625 13.8125 5.515625 26.8125 
Q 5.515625 40.234375 12.765625 48.109375 
Q 20.015625 56 32.328125 56 
Q 43.359375 56 49.78125 48.890625 
Q 56.203125 41.796875 56.203125 29.59375 
z
M 47.21875 32.234375 
Q 47.125 39.59375 43.09375 43.984375 
Q 39.0625 48.390625 32.421875 48.390625 
Q 24.90625 48.390625 20.390625 44.140625 
Q 15.875 39.890625 15.1875 32.171875 
z
" id="DejaVuSans-101"/>
      <path d="M 45.40625 46.390625 
L 45.40625 75.984375 
L 54.390625 75.984375 
L 54.390625 0 
L 45.40625 0 
L 45.40625 8.203125 
Q 42.578125 3.328125 38.25 0.953125 
Q 33.9375 -1.421875 27.875 -1.421875 
Q 17.96875 -1.421875 11.734375 6.484375 
Q 5.515625 14.40625 5.515625 27.296875 
Q 5.515625 40.1875 11.734375 48.09375 
Q 17.96875 56 27.875 56 
Q 33.9375 56 38.25 53.625 
Q 42.578125 51.265625 45.40625 46.390625 
z
M 14.796875 27.296875 
Q 14.796875 17.390625 18.875 11.75 
Q 22.953125 6.109375 30.078125 6.109375 
Q 37.203125 6.109375 41.296875 11.75 
Q 45.40625 17.390625 45.40625 27.296875 
Q 45.40625 37.203125 41.296875 42.84375 
Q 37.203125 48.484375 30.078125 48.484375 
Q 22.953125 48.484375 18.875 42.84375 
Q 14.796875 37.203125 14.796875 27.296875 
z
" id="DejaVuSans-100"/>
     </defs>
     <g transform="translate(31.795312 192.720187)rotate(-90)scale(0.1 -0.1)">
      <use xlink:href="#DejaVuSans-77"/>
      <use x="86.279297" xlink:href="#DejaVuSans-101"/>
      <use x="147.802734" xlink:href="#DejaVuSans-100"/>
      <use x="211.279297" xlink:href="#DejaVuSans-105"/>
      <use x="239.0625" xlink:href="#DejaVuSans-100"/>
      <use x="302.539062" xlink:href="#DejaVuSans-97"/>
     </g>
    </g>
   </g>
   <g id="LineCollection_1">
    <path clip-path="url(#p0dfe3cf001)" d="M 83.649201 144.354897 
L 83.649201 134.876045 
" style="fill:none;stroke:#808080;stroke-opacity:0.75;stroke-width:4;"/>
    <path clip-path="url(#p0dfe3cf001)" d="M 90.727363 166.453619 
L 90.727363 159.214026 
" style="fill:none;stroke:#808080;stroke-opacity:0.75;stroke-width:4;"/>
    <path clip-path="url(#p0dfe3cf001)" d="M 97.805524 219.569557 
L 97.805524 214.450392 
" style="fill:none;stroke:#808080;stroke-opacity:0.75;stroke-width:4;"/>
    <path clip-path="url(#p0dfe3cf001)" d="M 104.883686 231.678436 
L 104.883686 225.559863 
" style="fill:none;stroke:#808080;stroke-opacity:0.75;stroke-width:4;"/>
    <path clip-path="url(#p0dfe3cf001)" d="M 111.961847 205.994074 
L 111.961847 173.849723 
" style="fill:none;stroke:#808080;stroke-opacity:0.75;stroke-width:4;"/>
    <path clip-path="url(#p0dfe3cf001)" d="M 119.040008 210.850637 
L 119.040008 168.99316 
" style="fill:none;stroke:#808080;stroke-opacity:0.75;stroke-width:4;"/>
    <path clip-path="url(#p0dfe3cf001)" d="M 126.11817 165.08267 
L 126.11817 152.845524 
" style="fill:none;stroke:#808080;stroke-opacity:0.75;stroke-width:4;"/>
    <path clip-path="url(#p0dfe3cf001)" d="M 133.196331 202.444592 
L 133.196331 185.138655 
" style="fill:none;stroke:#808080;stroke-opacity:0.75;stroke-width:4;"/>
    <path clip-path="url(#p0dfe3cf001)" d="M 140.274492 208.460085 
L 140.274492 202.341512 
" style="fill:none;stroke:#808080;stroke-opacity:0.75;stroke-width:4;"/>
    <path clip-path="url(#p0dfe3cf001)" d="M 147.352654 220.06926 
L 147.352654 213.950688 
" style="fill:none;stroke:#808080;stroke-opacity:0.75;stroke-width:4;"/>
    <path clip-path="url(#p0dfe3cf001)" d="M 154.430815 234.511505 
L 154.430815 191.768993 
" style="fill:none;stroke:#808080;stroke-opacity:0.75;stroke-width:4;"/>
    <path clip-path="url(#p0dfe3cf001)" d="M 161.508976 148.784036 
L 161.508976 138.186357 
" style="fill:none;stroke:#808080;stroke-opacity:0.75;stroke-width:4;"/>
    <path clip-path="url(#p0dfe3cf001)" d="M 168.587138 199.40075 
L 168.587138 180.443046 
" style="fill:none;stroke:#808080;stroke-opacity:0.75;stroke-width:4;"/>
    <path clip-path="url(#p0dfe3cf001)" d="M 175.665299 169.536383 
L 175.665299 156.131262 
" style="fill:none;stroke:#808080;stroke-opacity:0.75;stroke-width:4;"/>
    <path clip-path="url(#p0dfe3cf001)" d="M 182.74346 134.746031 
L 182.74346 105.78766 
" style="fill:none;stroke:#808080;stroke-opacity:0.75;stroke-width:4;"/>
    <path clip-path="url(#p0dfe3cf001)" d="M 189.821622 84.939462 
L 189.821622 70.460276 
" style="fill:none;stroke:#808080;stroke-opacity:0.75;stroke-width:4;"/>
    <path clip-path="url(#p0dfe3cf001)" d="M 196.899783 142.993677 
L 196.899783 113.018915 
" style="fill:none;stroke:#808080;stroke-opacity:0.75;stroke-width:4;"/>
    <path clip-path="url(#p0dfe3cf001)" d="M 203.977945 138.482055 
L 203.977945 133.009437 
" style="fill:none;stroke:#808080;stroke-opacity:0.75;stroke-width:4;"/>
    <path clip-path="url(#p0dfe3cf001)" d="M 211.056106 162.833822 
L 211.056106 139.615471 
" style="fill:none;stroke:#808080;stroke-opacity:0.75;stroke-width:4;"/>
    <path clip-path="url(#p0dfe3cf001)" d="M 218.134267 108.975789 
L 218.134267 85.121201 
" style="fill:none;stroke:#808080;stroke-opacity:0.75;stroke-width:4;"/>
    <path clip-path="url(#p0dfe3cf001)" d="M 225.212429 116.715239 
L 225.212429 92.860651 
" style="fill:none;stroke:#808080;stroke-opacity:0.75;stroke-width:4;"/>
    <path clip-path="url(#p0dfe3cf001)" d="M 232.29059 119.775326 
L 232.29059 89.800564 
" style="fill:none;stroke:#808080;stroke-opacity:0.75;stroke-width:4;"/>
    <path clip-path="url(#p0dfe3cf001)" d="M 239.368751 70.873937 
L 239.368751 53.568 
" style="fill:none;stroke:#808080;stroke-opacity:0.75;stroke-width:4;"/>
    <path clip-path="url(#p0dfe3cf001)" d="M 246.446913 89.309044 
L 246.446913 81.569594 
" style="fill:none;stroke:#808080;stroke-opacity:0.75;stroke-width:4;"/>
    <path clip-path="url(#p0dfe3cf001)" d="M 253.525074 107.847231 
L 253.525074 101.728659 
" style="fill:none;stroke:#808080;stroke-opacity:0.75;stroke-width:4;"/>
    <path clip-path="url(#p0dfe3cf001)" d="M 260.603235 166.331834 
L 260.603235 151.59636 
" style="fill:none;stroke:#808080;stroke-opacity:0.75;stroke-width:4;"/>
    <path clip-path="url(#p0dfe3cf001)" d="M 267.681397 166.336406 
L 267.681397 136.112887 
" style="fill:none;stroke:#808080;stroke-opacity:0.75;stroke-width:4;"/>
    <path clip-path="url(#p0dfe3cf001)" d="M 274.759558 141.958788 
L 274.759558 114.053803 
" style="fill:none;stroke:#808080;stroke-opacity:0.75;stroke-width:4;"/>
    <path clip-path="url(#p0dfe3cf001)" d="M 281.837719 130.255143 
L 281.837719 118.017998 
" style="fill:none;stroke:#808080;stroke-opacity:0.75;stroke-width:4;"/>
    <path clip-path="url(#p0dfe3cf001)" d="M 288.915881 158.46424 
L 288.915881 143.985054 
" style="fill:none;stroke:#808080;stroke-opacity:0.75;stroke-width:4;"/>
    <path clip-path="url(#p0dfe3cf001)" d="M 295.994042 173.072153 
L 295.994042 152.595492 
" style="fill:none;stroke:#808080;stroke-opacity:0.75;stroke-width:4;"/>
    <path clip-path="url(#p0dfe3cf001)" d="M 303.072204 181.182733 
L 303.072204 152.224362 
" style="fill:none;stroke:#808080;stroke-opacity:0.75;stroke-width:4;"/>
    <path clip-path="url(#p0dfe3cf001)" d="M 310.150365 172.770364 
L 310.150365 129.678929 
" style="fill:none;stroke:#808080;stroke-opacity:0.75;stroke-width:4;"/>
    <path clip-path="url(#p0dfe3cf001)" d="M 317.228526 151.159989 
L 317.228526 125.491137 
" style="fill:none;stroke:#808080;stroke-opacity:0.75;stroke-width:4;"/>
    <path clip-path="url(#p0dfe3cf001)" d="M 324.306688 143.577099 
L 324.306688 107.275859 
" style="fill:none;stroke:#808080;stroke-opacity:0.75;stroke-width:4;"/>
    <path clip-path="url(#p0dfe3cf001)" d="M 331.384849 127.514776 
L 331.384849 97.540014 
" style="fill:none;stroke:#808080;stroke-opacity:0.75;stroke-width:4;"/>
    <path clip-path="url(#p0dfe3cf001)" d="M 338.46301 117.266821 
L 338.46301 107.787969 
" style="fill:none;stroke:#808080;stroke-opacity:0.75;stroke-width:4;"/>
    <path clip-path="url(#p0dfe3cf001)" d="M 345.541172 182.810418 
L 345.541172 158.336127 
" style="fill:none;stroke:#808080;stroke-opacity:0.75;stroke-width:4;"/>
    <path clip-path="url(#p0dfe3cf001)" d="M 352.619333 173.924553 
L 352.619333 167.221992 
" style="fill:none;stroke:#808080;stroke-opacity:0.75;stroke-width:4;"/>
    <path clip-path="url(#p0dfe3cf001)" d="M 359.697494 179.182424 
L 359.697494 169.703572 
" style="fill:none;stroke:#808080;stroke-opacity:0.75;stroke-width:4;"/>
    <path clip-path="url(#p0dfe3cf001)" d="M 366.775656 195.016874 
L 366.775656 169.348022 
" style="fill:none;stroke:#808080;stroke-opacity:0.75;stroke-width:4;"/>
    <path clip-path="url(#p0dfe3cf001)" d="M 373.853817 167.331517 
L 373.853817 142.857227 
" style="fill:none;stroke:#808080;stroke-opacity:0.75;stroke-width:4;"/>
    <path clip-path="url(#p0dfe3cf001)" d="M 380.931978 103.78823 
L 380.931978 74.829859 
" style="fill:none;stroke:#808080;stroke-opacity:0.75;stroke-width:4;"/>
    <path clip-path="url(#p0dfe3cf001)" d="M 388.01014 111.15655 
L 388.01014 90.67989 
" style="fill:none;stroke:#808080;stroke-opacity:0.75;stroke-width:4;"/>
    <path clip-path="url(#p0dfe3cf001)" d="M 395.088301 169.439856 
L 395.088301 163.967238 
" style="fill:none;stroke:#808080;stroke-opacity:0.75;stroke-width:4;"/>
   </g>
   <g id="line2d_13">
    <path clip-path="url(#p0dfe3cf001)" d="M 83.649201 139.615471 
L 90.727363 162.833822 
L 97.805524 217.009974 
L 104.883686 228.61915 
L 111.961847 189.921898 
L 119.040008 189.921898 
L 126.11817 158.964097 
L 133.196331 193.791623 
L 140.274492 205.400799 
L 147.352654 217.009974 
L 154.430815 213.140249 
L 161.508976 143.485196 
L 168.587138 189.921898 
L 175.665299 162.833822 
L 182.74346 120.266846 
L 189.821622 77.699869 
L 196.899783 128.006296 
L 203.977945 135.745746 
L 211.056106 151.224647 
L 218.134267 97.048495 
L 225.212429 104.787945 
L 232.29059 104.787945 
L 239.368751 62.220968 
L 246.446913 85.439319 
L 253.525074 104.787945 
L 260.603235 158.964097 
L 267.681397 151.224647 
L 274.759558 128.006296 
L 281.837719 124.136571 
L 288.915881 151.224647 
L 295.994042 162.833822 
L 303.072204 166.703547 
L 310.150365 151.224647 
L 317.228526 138.325563 
L 324.306688 125.426479 
L 331.384849 112.527395 
L 338.46301 112.527395 
L 345.541172 170.573272 
L 352.619333 170.573272 
L 359.697494 174.442998 
L 366.775656 182.182448 
L 373.853817 155.094372 
L 380.931978 89.309044 
L 388.01014 100.91822 
L 395.088301 166.703547 
" style="fill:none;stroke:#1f77b4;stroke-linecap:square;stroke-width:1.5;"/>
   </g>
   <g id="line2d_14">
    <path clip-path="url(#p0dfe3cf001)" d="M 83.649201 62.220968 
L 90.727363 67.522492 
L 97.805524 72.824015 
L 104.883686 78.125539 
L 111.961847 83.427062 
L 119.040008 88.728586 
L 126.11817 94.030109 
L 133.196331 99.331633 
L 140.274492 104.633156 
L 147.352654 109.934679 
L 154.430815 115.236203 
L 161.508976 120.537726 
L 168.587138 125.83925 
L 175.665299 131.140773 
L 182.74346 136.442297 
L 189.821622 141.74382 
L 196.899783 147.045344 
L 203.977945 152.346867 
L 211.056106 157.64839 
L 218.134267 162.949914 
L 225.212429 168.251437 
L 232.29059 173.552961 
L 239.368751 178.854484 
L 246.446913 184.156008 
L 253.525074 189.457531 
L 260.603235 194.759055 
L 267.681397 200.060578 
L 274.759558 205.362101 
L 281.837719 210.663625 
L 288.915881 215.965148 
L 295.994042 221.266672 
L 303.072204 226.568195 
L 310.150365 231.869719 
L 317.228526 237.171242 
L 324.306688 242.472766 
L 331.384849 247.774289 
L 338.46301 253.075812 
L 345.541172 258.377336 
L 352.619333 263.678859 
L 359.697494 268.980383 
L 366.775656 274.281906 
L 373.853817 279.58343 
L 380.931978 284.884953 
L 388.01014 290.186477 
L 395.088301 295.488 
" style="fill:none;stroke:#ff7f0e;stroke-linecap:square;stroke-width:1.5;"/>
   </g>
   <g id="patch_3">
    <path d="M 57.6 307.584 
L 57.6 41.472 
" style="fill:none;stroke:#000000;stroke-linecap:square;stroke-linejoin:miter;stroke-width:0.8;"/>
   </g>
   <g id="patch_4">
    <path d="M 414.72 307.584 
L 414.72 41.472 
" style="fill:none;stroke:#000000;stroke-linecap:square;stroke-linejoin:miter;stroke-width:0.8;"/>
   </g>
   <g id="patch_5">
    <path d="M 57.6 307.584 
L 414.72 307.584 
" style="fill:none;stroke:#000000;stroke-linecap:square;stroke-linejoin:miter;stroke-width:0.8;"/>
   </g>
   <g id="patch_6">
    <path d="M 57.6 41.472 
L 414.72 41.472 
" style="fill:none;stroke:#000000;stroke-linecap:square;stroke-linejoin:miter;stroke-width:0.8;"/>
   </g>
   <g id="legend_1">
    <g id="patch_7">
     <path d="M 330.502813 78.847 
L 407.72 78.847 
Q 409.72 78.847 409.72 76.847 
L 409.72 48.472 
Q 409.72 46.472 407.72 46.472 
L 330.502813 46.472 
Q 328.502813 46.472 328.502813 48.472 
L 328.502813 76.847 
Q 328.502813 78.847 330.502813 78.847 
z
" style="fill:#ffffff;opacity:0.8;stroke:#cccccc;stroke-linejoin:miter;"/>
    </g>
    <g id="line2d_15">
     <path d="M 332.502813 54.589188 
L 352.502813 54.589188 
" style="fill:none;stroke:#1f77b4;stroke-linecap:square;stroke-width:1.5;"/>
    </g>
    <g id="line2d_16"/>
    <g id="text_15">
     <!-- Evoluo -->
     <defs>
      <path d="M 9.8125 72.90625 
L 55.90625 72.90625 
L 55.90625 64.59375 
L 19.671875 64.59375 
L 19.671875 43.015625 
L 54.390625 43.015625 
L 54.390625 34.71875 
L 19.671875 34.71875 
L 19.671875 8.296875 
L 56.78125 8.296875 
L 56.78125 0 
L 9.8125 0 
z
" id="DejaVuSans-69"/>
      <path d="M 2.984375 54.6875 
L 12.5 54.6875 
L 29.59375 8.796875 
L 46.6875 54.6875 
L 56.203125 54.6875 
L 35.6875 0 
L 23.484375 0 
z
" id="DejaVuSans-118"/>
      <path d="M 30.609375 48.390625 
Q 23.390625 48.390625 19.1875 42.75 
Q 14.984375 37.109375 14.984375 27.296875 
Q 14.984375 17.484375 19.15625 11.84375 
Q 23.34375 6.203125 30.609375 6.203125 
Q 37.796875 6.203125 41.984375 11.859375 
Q 46.1875 17.53125 46.1875 27.296875 
Q 46.1875 37.015625 41.984375 42.703125 
Q 37.796875 48.390625 30.609375 48.390625 
z
M 30.609375 56 
Q 42.328125 56 49.015625 48.375 
Q 55.71875 40.765625 55.71875 27.296875 
Q 55.71875 13.875 49.015625 6.21875 
Q 42.328125 -1.421875 30.609375 -1.421875 
Q 18.84375 -1.421875 12.171875 6.21875 
Q 5.515625 13.875 5.515625 27.296875 
Q 5.515625 40.765625 12.171875 48.375 
Q 18.84375 56 30.609375 56 
z
" id="DejaVuSans-111"/>
      <path d="M 9.421875 75.984375 
L 18.40625 75.984375 
L 18.40625 0 
L 9.421875 0 
z
" id="DejaVuSans-108"/>
      <path d="M 8.5 21.578125 
L 8.5 54.6875 
L 17.484375 54.6875 
L 17.484375 21.921875 
Q 17.484375 14.15625 20.5 10.265625 
Q 23.53125 6.390625 29.59375 6.390625 
Q 36.859375 6.390625 41.078125 11.03125 
Q 45.3125 15.671875 45.3125 23.6875 
L 45.3125 54.6875 
L 54.296875 54.6875 
L 54.296875 0 
L 45.3125 0 
L 45.3125 8.40625 
Q 42.046875 3.421875 37.71875 1 
Q 33.40625 -1.421875 27.6875 -1.421875 
Q 18.265625 -1.421875 13.375 4.4375 
Q 8.5 10.296875 8.5 21.578125 
z
M 31.109375 56 
z
" id="DejaVuSans-117"/>
      <path d="M 48.78125 52.59375 
L 48.78125 44.1875 
Q 44.96875 46.296875 41.140625 47.34375 
Q 37.3125 48.390625 33.40625 48.390625 
Q 24.65625 48.390625 19.8125 42.84375 
Q 14.984375 37.3125 14.984375 27.296875 
Q 14.984375 17.28125 19.8125 11.734375 
Q 24.65625 6.203125 33.40625 6.203125 
Q 37.3125 6.203125 41.140625 7.25 
Q 44.96875 8.296875 48.78125 10.40625 
L 48.78125 2.09375 
Q 45.015625 0.34375 40.984375 -0.53125 
Q 36.96875 -1.421875 32.421875 -1.421875 
Q 20.0625 -1.421875 12.78125 6.34375 
Q 5.515625 14.109375 5.515625 27.296875 
Q 5.515625 40.671875 12.859375 48.328125 
Q 20.21875 56 33.015625 56 
Q 37.15625 56 41.109375 55.140625 
Q 45.0625 54.296875 48.78125 52.59375 
z
M 36.078125 0 
Q 38.765625 -3.03125 40.078125 -5.59375 
Q 41.40625 -8.15625 41.40625 -10.5 
Q 41.40625 -14.84375 38.46875 -17.0625 
Q 35.546875 -19.28125 29.78125 -19.28125 
Q 27.546875 -19.28125 25.421875 -18.984375 
Q 23.296875 -18.703125 21.1875 -18.109375 
L 21.1875 -11.71875 
Q 22.859375 -12.546875 24.65625 -12.90625 
Q 26.46875 -13.28125 28.765625 -13.28125 
Q 31.640625 -13.28125 33.109375 -12.109375 
Q 34.578125 -10.9375 34.578125 -8.6875 
Q 34.578125 -7.234375 33.515625 -5.109375 
Q 32.46875 -2.984375 30.28125 0 
z
" id="DejaVuSans-231"/>
      <path d="M 34.28125 27.484375 
Q 23.390625 27.484375 19.1875 25 
Q 14.984375 22.515625 14.984375 16.5 
Q 14.984375 11.71875 18.140625 8.90625 
Q 21.296875 6.109375 26.703125 6.109375 
Q 34.1875 6.109375 38.703125 11.40625 
Q 43.21875 16.703125 43.21875 25.484375 
L 43.21875 27.484375 
z
M 52.203125 31.203125 
L 52.203125 0 
L 43.21875 0 
L 43.21875 8.296875 
Q 40.140625 3.328125 35.546875 0.953125 
Q 30.953125 -1.421875 24.3125 -1.421875 
Q 15.921875 -1.421875 10.953125 3.296875 
Q 6 8.015625 6 15.921875 
Q 6 25.140625 12.171875 29.828125 
Q 18.359375 34.515625 30.609375 34.515625 
L 43.21875 34.515625 
L 43.21875 35.40625 
Q 43.21875 41.609375 39.140625 45 
Q 35.0625 48.390625 27.6875 48.390625 
Q 23 48.390625 18.546875 47.265625 
Q 14.109375 46.140625 10.015625 43.890625 
L 10.015625 52.203125 
Q 14.9375 54.109375 19.578125 55.046875 
Q 24.21875 56 28.609375 56 
Q 40.484375 56 46.34375 49.84375 
Q 52.203125 43.703125 52.203125 31.203125 
z
M 28.8125 66.890625 
L 26.03125 69.578125 
Q 24.953125 70.5625 24.140625 71.015625 
Q 23.34375 71.484375 22.703125 71.484375 
Q 20.84375 71.484375 19.96875 69.703125 
Q 19.09375 67.921875 19 63.921875 
L 12.890625 63.921875 
Q 12.984375 70.515625 15.46875 74.09375 
Q 17.96875 77.6875 22.40625 77.6875 
Q 24.265625 77.6875 25.828125 77 
Q 27.390625 76.3125 29.203125 74.703125 
L 31.984375 72.015625 
Q 33.0625 71.046875 33.859375 70.578125 
Q 34.671875 70.125 35.296875 70.125 
Q 37.15625 70.125 38.03125 71.90625 
Q 38.921875 73.6875 39.015625 77.6875 
L 45.125 77.6875 
Q 45.015625 71.09375 42.53125 67.5 
Q 40.046875 63.921875 35.59375 63.921875 
Q 33.734375 63.921875 32.171875 64.59375 
Q 30.609375 65.28125 28.8125 66.890625 
z
" id="DejaVuSans-227"/>
     </defs>
     <g transform="translate(360.502813 58.089188)scale(0.1 -0.1)">
      <use xlink:href="#DejaVuSans-69"/>
      <use x="63.183594" xlink:href="#DejaVuSans-118"/>
      <use x="122.363281" xlink:href="#DejaVuSans-111"/>
      <use x="183.544922" xlink:href="#DejaVuSans-108"/>
      <use x="211.328125" xlink:href="#DejaVuSans-117"/>
      <use x="274.707031" xlink:href="#DejaVuSans-231"/>
      <use x="329.6875" xlink:href="#DejaVuSans-227"/>
      <use x="390.966797" xlink:href="#DejaVuSans-111"/>
     </g>
    </g>
    <g id="line2d_17">
     <path d="M 332.502813 69.267313 
L 352.502813 69.267313 
" style="fill:none;stroke:#ff7f0e;stroke-linecap:square;stroke-width:1.5;"/>
    </g>
    <g id="line2d_18"/>
    <g id="text_16">
     <!-- Objetivo -->
     <defs>
      <path d="M 39.40625 66.21875 
Q 28.65625 66.21875 22.328125 58.203125 
Q 16.015625 50.203125 16.015625 36.375 
Q 16.015625 22.609375 22.328125 14.59375 
Q 28.65625 6.59375 39.40625 6.59375 
Q 50.140625 6.59375 56.421875 14.59375 
Q 62.703125 22.609375 62.703125 36.375 
Q 62.703125 50.203125 56.421875 58.203125 
Q 50.140625 66.21875 39.40625 66.21875 
z
M 39.40625 74.21875 
Q 54.734375 74.21875 63.90625 63.9375 
Q 73.09375 53.65625 73.09375 36.375 
Q 73.09375 19.140625 63.90625 8.859375 
Q 54.734375 -1.421875 39.40625 -1.421875 
Q 24.03125 -1.421875 14.8125 8.828125 
Q 5.609375 19.09375 5.609375 36.375 
Q 5.609375 53.65625 14.8125 63.9375 
Q 24.03125 74.21875 39.40625 74.21875 
z
" id="DejaVuSans-79"/>
      <path d="M 48.6875 27.296875 
Q 48.6875 37.203125 44.609375 42.84375 
Q 40.53125 48.484375 33.40625 48.484375 
Q 26.265625 48.484375 22.1875 42.84375 
Q 18.109375 37.203125 18.109375 27.296875 
Q 18.109375 17.390625 22.1875 11.75 
Q 26.265625 6.109375 33.40625 6.109375 
Q 40.53125 6.109375 44.609375 11.75 
Q 48.6875 17.390625 48.6875 27.296875 
z
M 18.109375 46.390625 
Q 20.953125 51.265625 25.265625 53.625 
Q 29.59375 56 35.59375 56 
Q 45.5625 56 51.78125 48.09375 
Q 58.015625 40.1875 58.015625 27.296875 
Q 58.015625 14.40625 51.78125 6.484375 
Q 45.5625 -1.421875 35.59375 -1.421875 
Q 29.59375 -1.421875 25.265625 0.953125 
Q 20.953125 3.328125 18.109375 8.203125 
L 18.109375 0 
L 9.078125 0 
L 9.078125 75.984375 
L 18.109375 75.984375 
z
" id="DejaVuSans-98"/>
      <path d="M 9.421875 54.6875 
L 18.40625 54.6875 
L 18.40625 -0.984375 
Q 18.40625 -11.421875 14.421875 -16.109375 
Q 10.453125 -20.796875 1.609375 -20.796875 
L -1.8125 -20.796875 
L -1.8125 -13.1875 
L 0.59375 -13.1875 
Q 5.71875 -13.1875 7.5625 -10.8125 
Q 9.421875 -8.453125 9.421875 -0.984375 
z
M 9.421875 75.984375 
L 18.40625 75.984375 
L 18.40625 64.59375 
L 9.421875 64.59375 
z
" id="DejaVuSans-106"/>
      <path d="M 18.3125 70.21875 
L 18.3125 54.6875 
L 36.8125 54.6875 
L 36.8125 47.703125 
L 18.3125 47.703125 
L 18.3125 18.015625 
Q 18.3125 11.328125 20.140625 9.421875 
Q 21.96875 7.515625 27.59375 7.515625 
L 36.8125 7.515625 
L 36.8125 0 
L 27.59375 0 
Q 17.1875 0 13.234375 3.875 
Q 9.28125 7.765625 9.28125 18.015625 
L 9.28125 47.703125 
L 2.6875 47.703125 
L 2.6875 54.6875 
L 9.28125 54.6875 
L 9.28125 70.21875 
z
" id="DejaVuSans-116"/>
     </defs>
     <g transform="translate(360.502813 72.767313)scale(0.1 -0.1)">
      <use xlink:href="#DejaVuSans-79"/>
      <use x="78.710938" xlink:href="#DejaVuSans-98"/>
      <use x="142.1875" xlink:href="#DejaVuSans-106"/>
      <use x="169.970703" xlink:href="#DejaVuSans-101"/>
      <use x="231.494141" xlink:href="#DejaVuSans-116"/>
      <use x="270.703125" xlink:href="#DejaVuSans-105"/>
      <use x="298.486328" xlink:href="#DejaVuSans-118"/>
      <use x="357.666016" xlink:href="#DejaVuSans-111"/>
     </g>
    </g>
   </g>
  </g>
 </g>
 <defs>
  <clipPath id="p0dfe3cf001">
   <rect height="266.112" width="357.12" x="57.6" y="41.472"/>
  </clipPath>
 </defs>
</svg>
