<?xml version="1.0" encoding="UTF-8" standalone="no"?>
<svg
   xmlns:dc="http://purl.org/dc/elements/1.1/"
   xmlns:cc="http://creativecommons.org/ns#"
   xmlns:rdf="http://www.w3.org/1999/02/22-rdf-syntax-ns#"
   xmlns:svg="http://www.w3.org/2000/svg"
   xmlns="http://www.w3.org/2000/svg"
   xmlns:sodipodi="http://sodipodi.sourceforge.net/DTD/sodipodi-0.dtd"
   xmlns:inkscape="http://www.inkscape.org/namespaces/inkscape"
   aria-hidden="true"
   focusable="false"
   data-prefix="fas"
   data-icon="question"
   class="svg-inline--fa fa-question fa-w-12"
   role="img"
   viewBox="0 0 42 60"
   version="1.1"
   id="svg4"
   sodipodi:docname="question-solid.svg"
   inkscape:version="0.92.3 (2405546, 2018-03-11)"
   width="42"
   height="60">
  <metadata
     id="metadata10">
    <rdf:RDF>
      <cc:Work
         rdf:about="">
        <dc:format>image/svg+xml</dc:format>
        <dc:type
           rdf:resource="http://purl.org/dc/dcmitype/StillImage" />
        <dc:title></dc:title>
      </cc:Work>
    </rdf:RDF>
  </metadata>
  <defs
     id="defs8" />
  <sodipodi:namedview
     pagecolor="#ffffff"
     bordercolor="#666666"
     borderopacity="1"
     objecttolerance="10"
     gridtolerance="10"
     guidetolerance="10"
     inkscape:pageopacity="0"
     inkscape:pageshadow="2"
     inkscape:window-width="1360"
     inkscape:window-height="705"
     id="namedview6"
     showgrid="false"
     inkscape:zoom="3.6875"
     inkscape:cx="129.91663"
     inkscape:cy="23.627778"
     inkscape:window-x="-8"
     inkscape:window-y="-8"
     inkscape:window-maximized="1"
     inkscape:current-layer="svg4"
     width="223px"
     showborder="true"
     inkscape:showpageshadow="false"
     borderlayer="false" />
  <path
     d="m 21.467967,0.06779 c -9.174112,0 -15.1162101,3.75877 -19.7813658,10.4622 -0.8462763,1.21603 -0.5853704,2.8833 0.5951415,3.77843 l 4.958128,3.75945 c 1.1922353,0.90398 2.8885823,0.69261 3.8219803,-0.47676 2.879044,-3.60682 5.014678,-5.68349 9.511796,-5.68349 3.535905,0 7.909466,2.27563 7.909466,5.70441 0,2.59205 -2.139771,3.92324 -5.631081,5.88061 -4.071394,2.28264 -9.459154,5.12341 -9.459154,12.22981 v 1.125 c 0,1.52348 1.234992,2.75848 2.758475,2.75848 h 8.329558 c 1.523482,0 2.758474,-1.235 2.758474,-2.75848 v -0.66353 c 0,-4.92617 14.397858,-5.13133 14.397858,-18.46189 C 41.637359,7.68302 31.223887,0.06779 21.467967,0.06779 Z m -1.151778,42.92405 c -4.390112,0 -7.961762,3.57165 -7.961762,7.96176 0,4.39 3.57165,7.96165 7.961762,7.96165 4.390113,0 7.961762,-3.57165 7.961762,-7.96176 0,-4.39012 -3.571649,-7.96165 -7.961762,-7.96165 z"
     id="path2"
     inkscape:connector-curvature="0"
     style="fill:currentColor;stroke-width:0.11493643" />
</svg>
